<mxfile host="app.diagrams.net" modified="2024-02-11T21:49:32.932Z" agent="Mozilla/5.0 (Windows NT 10.0; Win64; x64; rv:122.0) Gecko/20100101 Firefox/122.0" etag="NKVh8tS21-XOPRgr4CQ7" version="23.1.2" type="device">
  <diagram name="Page-1" id="B5YggesGqB6vWMTBKsuY">
    <mxGraphModel dx="1210" dy="643" grid="1" gridSize="10" guides="1" tooltips="1" connect="1" arrows="1" fold="1" page="1" pageScale="1" pageWidth="1654" pageHeight="2336" math="0" shadow="0">
      <root>
        <mxCell id="0" />
        <mxCell id="1" parent="0" />
        <mxCell id="tMXFzxCmxvHccaeZ4-Bl-1" value="&lt;div style=&quot;font-size: 18px;&quot;&gt;Students&lt;/div&gt;" style="rounded=0;whiteSpace=wrap;html=1;fillColor=#f5f5f5;fontColor=#333333;strokeColor=#666666;" vertex="1" parent="1">
          <mxGeometry x="840" y="480" width="120" height="60" as="geometry" />
        </mxCell>
        <mxCell id="tMXFzxCmxvHccaeZ4-Bl-7" value="&lt;div&gt;Full Name&lt;/div&gt;" style="ellipse;whiteSpace=wrap;html=1;align=center;fillColor=#ffe6cc;strokeColor=#d79b00;" vertex="1" parent="1">
          <mxGeometry x="670" y="370" width="100" height="40" as="geometry" />
        </mxCell>
        <mxCell id="tMXFzxCmxvHccaeZ4-Bl-8" value="&lt;div&gt;Student ID&lt;/div&gt;" style="ellipse;whiteSpace=wrap;html=1;align=center;fontStyle=4;fillColor=#ffe6cc;strokeColor=#d79b00;" vertex="1" parent="1">
          <mxGeometry x="1050" y="420" width="100" height="40" as="geometry" />
        </mxCell>
        <mxCell id="tMXFzxCmxvHccaeZ4-Bl-9" value="&lt;div&gt;Date Of Birth&lt;/div&gt;" style="ellipse;whiteSpace=wrap;html=1;align=center;fillColor=#ffe6cc;strokeColor=#d79b00;" vertex="1" parent="1">
          <mxGeometry x="690" y="430" width="100" height="40" as="geometry" />
        </mxCell>
        <mxCell id="tMXFzxCmxvHccaeZ4-Bl-10" value="&lt;div&gt;Email&lt;/div&gt;" style="ellipse;whiteSpace=wrap;html=1;align=center;fillColor=#ffe6cc;strokeColor=#d79b00;" vertex="1" parent="1">
          <mxGeometry x="770" y="340" width="100" height="40" as="geometry" />
        </mxCell>
        <mxCell id="tMXFzxCmxvHccaeZ4-Bl-11" value="&lt;div&gt;Gender&lt;/div&gt;" style="ellipse;whiteSpace=wrap;html=1;align=center;fillColor=#ffe6cc;strokeColor=#d79b00;" vertex="1" parent="1">
          <mxGeometry x="890" y="340" width="100" height="40" as="geometry" />
        </mxCell>
        <mxCell id="tMXFzxCmxvHccaeZ4-Bl-12" value="&lt;div&gt;Mobile Number&lt;/div&gt;" style="ellipse;whiteSpace=wrap;html=1;align=center;fillColor=#ffe6cc;strokeColor=#d79b00;" vertex="1" parent="1">
          <mxGeometry x="990" y="370" width="100" height="40" as="geometry" />
        </mxCell>
        <mxCell id="tMXFzxCmxvHccaeZ4-Bl-13" value="" style="endArrow=none;html=1;rounded=0;" edge="1" parent="1" source="tMXFzxCmxvHccaeZ4-Bl-8" target="tMXFzxCmxvHccaeZ4-Bl-1">
          <mxGeometry relative="1" as="geometry">
            <mxPoint x="780" y="560" as="sourcePoint" />
            <mxPoint x="940" y="560" as="targetPoint" />
          </mxGeometry>
        </mxCell>
        <mxCell id="tMXFzxCmxvHccaeZ4-Bl-14" value="" style="endArrow=none;html=1;rounded=0;" edge="1" parent="1" source="tMXFzxCmxvHccaeZ4-Bl-7" target="tMXFzxCmxvHccaeZ4-Bl-1">
          <mxGeometry relative="1" as="geometry">
            <mxPoint x="780" y="560" as="sourcePoint" />
            <mxPoint x="940" y="560" as="targetPoint" />
          </mxGeometry>
        </mxCell>
        <mxCell id="tMXFzxCmxvHccaeZ4-Bl-15" value="" style="endArrow=none;html=1;rounded=0;" edge="1" parent="1" source="tMXFzxCmxvHccaeZ4-Bl-10" target="tMXFzxCmxvHccaeZ4-Bl-1">
          <mxGeometry relative="1" as="geometry">
            <mxPoint x="780" y="560" as="sourcePoint" />
            <mxPoint x="940" y="560" as="targetPoint" />
          </mxGeometry>
        </mxCell>
        <mxCell id="tMXFzxCmxvHccaeZ4-Bl-16" value="" style="endArrow=none;html=1;rounded=0;entryX=0.5;entryY=1;entryDx=0;entryDy=0;" edge="1" parent="1" source="tMXFzxCmxvHccaeZ4-Bl-1" target="tMXFzxCmxvHccaeZ4-Bl-11">
          <mxGeometry relative="1" as="geometry">
            <mxPoint x="780" y="560" as="sourcePoint" />
            <mxPoint x="940" y="560" as="targetPoint" />
          </mxGeometry>
        </mxCell>
        <mxCell id="tMXFzxCmxvHccaeZ4-Bl-17" value="" style="endArrow=none;html=1;rounded=0;entryX=0.31;entryY=1.025;entryDx=0;entryDy=0;entryPerimeter=0;" edge="1" parent="1" source="tMXFzxCmxvHccaeZ4-Bl-1" target="tMXFzxCmxvHccaeZ4-Bl-12">
          <mxGeometry relative="1" as="geometry">
            <mxPoint x="780" y="560" as="sourcePoint" />
            <mxPoint x="940" y="560" as="targetPoint" />
          </mxGeometry>
        </mxCell>
        <mxCell id="tMXFzxCmxvHccaeZ4-Bl-20" value="" style="endArrow=none;html=1;rounded=0;" edge="1" parent="1" source="tMXFzxCmxvHccaeZ4-Bl-9" target="tMXFzxCmxvHccaeZ4-Bl-1">
          <mxGeometry relative="1" as="geometry">
            <mxPoint x="780" y="560" as="sourcePoint" />
            <mxPoint x="940" y="560" as="targetPoint" />
          </mxGeometry>
        </mxCell>
        <mxCell id="tMXFzxCmxvHccaeZ4-Bl-21" value="&lt;div&gt;Enroll &lt;br&gt;&lt;/div&gt;" style="shape=rhombus;perimeter=rhombusPerimeter;whiteSpace=wrap;html=1;align=center;fillColor=#f5f5f5;fontColor=#333333;strokeColor=#666666;" vertex="1" parent="1">
          <mxGeometry x="840" y="610" width="120" height="60" as="geometry" />
        </mxCell>
        <mxCell id="tMXFzxCmxvHccaeZ4-Bl-22" value="&lt;div style=&quot;font-size: 17px;&quot;&gt;&lt;font style=&quot;font-size: 15px;&quot;&gt;Departments&lt;/font&gt;&lt;/div&gt;" style="whiteSpace=wrap;html=1;align=center;fillColor=#f5f5f5;fontColor=#333333;strokeColor=#666666;" vertex="1" parent="1">
          <mxGeometry x="850" y="720" width="100" height="40" as="geometry" />
        </mxCell>
        <mxCell id="tMXFzxCmxvHccaeZ4-Bl-25" value="" style="shape=link;html=1;rounded=0;exitX=0.5;exitY=1;exitDx=0;exitDy=0;" edge="1" parent="1" source="tMXFzxCmxvHccaeZ4-Bl-1" target="tMXFzxCmxvHccaeZ4-Bl-21">
          <mxGeometry relative="1" as="geometry">
            <mxPoint x="780" y="560" as="sourcePoint" />
            <mxPoint x="940" y="560" as="targetPoint" />
          </mxGeometry>
        </mxCell>
        <mxCell id="tMXFzxCmxvHccaeZ4-Bl-26" value="N" style="resizable=0;html=1;whiteSpace=wrap;align=right;verticalAlign=bottom;" connectable="0" vertex="1" parent="tMXFzxCmxvHccaeZ4-Bl-25">
          <mxGeometry x="1" relative="1" as="geometry">
            <mxPoint x="-18" y="-2" as="offset" />
          </mxGeometry>
        </mxCell>
        <mxCell id="tMXFzxCmxvHccaeZ4-Bl-29" value="" style="endArrow=none;html=1;rounded=0;entryX=0.5;entryY=1;entryDx=0;entryDy=0;exitX=0.5;exitY=0;exitDx=0;exitDy=0;" edge="1" parent="1" source="tMXFzxCmxvHccaeZ4-Bl-22" target="tMXFzxCmxvHccaeZ4-Bl-21">
          <mxGeometry relative="1" as="geometry">
            <mxPoint x="500" y="620" as="sourcePoint" />
            <mxPoint x="660" y="620" as="targetPoint" />
          </mxGeometry>
        </mxCell>
        <mxCell id="tMXFzxCmxvHccaeZ4-Bl-30" value="1" style="resizable=0;html=1;whiteSpace=wrap;align=right;verticalAlign=bottom;" connectable="0" vertex="1" parent="tMXFzxCmxvHccaeZ4-Bl-29">
          <mxGeometry x="1" relative="1" as="geometry">
            <mxPoint x="-14" y="23" as="offset" />
          </mxGeometry>
        </mxCell>
        <mxCell id="tMXFzxCmxvHccaeZ4-Bl-31" value="&lt;div&gt;Department ID&lt;/div&gt;" style="ellipse;whiteSpace=wrap;html=1;align=center;fontStyle=4;fillColor=#ffe6cc;strokeColor=#d79b00;" vertex="1" parent="1">
          <mxGeometry x="910" y="800" width="100" height="40" as="geometry" />
        </mxCell>
        <mxCell id="tMXFzxCmxvHccaeZ4-Bl-32" value="&lt;div&gt;Department Name&lt;/div&gt;" style="ellipse;whiteSpace=wrap;html=1;align=center;fillColor=#ffe6cc;strokeColor=#d79b00;" vertex="1" parent="1">
          <mxGeometry x="780" y="810" width="120" height="40" as="geometry" />
        </mxCell>
        <mxCell id="tMXFzxCmxvHccaeZ4-Bl-33" value="" style="endArrow=none;html=1;rounded=0;exitX=0.5;exitY=0;exitDx=0;exitDy=0;" edge="1" parent="1" source="tMXFzxCmxvHccaeZ4-Bl-32" target="tMXFzxCmxvHccaeZ4-Bl-22">
          <mxGeometry relative="1" as="geometry">
            <mxPoint x="500" y="650" as="sourcePoint" />
            <mxPoint x="660" y="650" as="targetPoint" />
          </mxGeometry>
        </mxCell>
        <mxCell id="tMXFzxCmxvHccaeZ4-Bl-34" value="" style="endArrow=none;html=1;rounded=0;entryX=0.4;entryY=0.05;entryDx=0;entryDy=0;entryPerimeter=0;exitX=0.88;exitY=0.975;exitDx=0;exitDy=0;exitPerimeter=0;" edge="1" parent="1" source="tMXFzxCmxvHccaeZ4-Bl-22" target="tMXFzxCmxvHccaeZ4-Bl-31">
          <mxGeometry relative="1" as="geometry">
            <mxPoint x="500" y="650" as="sourcePoint" />
            <mxPoint x="660" y="650" as="targetPoint" />
          </mxGeometry>
        </mxCell>
        <mxCell id="tMXFzxCmxvHccaeZ4-Bl-36" value="&lt;div&gt;Have&lt;/div&gt;" style="shape=rhombus;perimeter=rhombusPerimeter;whiteSpace=wrap;html=1;align=center;fillColor=#f5f5f5;fontColor=#333333;strokeColor=#666666;" vertex="1" parent="1">
          <mxGeometry x="600" y="720" width="120" height="60" as="geometry" />
        </mxCell>
        <mxCell id="tMXFzxCmxvHccaeZ4-Bl-37" value="" style="endArrow=none;html=1;rounded=0;exitX=0;exitY=0.5;exitDx=0;exitDy=0;entryX=1;entryY=0.5;entryDx=0;entryDy=0;" edge="1" parent="1" source="tMXFzxCmxvHccaeZ4-Bl-22" target="tMXFzxCmxvHccaeZ4-Bl-36">
          <mxGeometry relative="1" as="geometry">
            <mxPoint x="580" y="590" as="sourcePoint" />
            <mxPoint x="690" y="740" as="targetPoint" />
          </mxGeometry>
        </mxCell>
        <mxCell id="tMXFzxCmxvHccaeZ4-Bl-38" value="N" style="resizable=0;html=1;whiteSpace=wrap;align=right;verticalAlign=bottom;" connectable="0" vertex="1" parent="tMXFzxCmxvHccaeZ4-Bl-37">
          <mxGeometry x="1" relative="1" as="geometry">
            <mxPoint x="17" y="-10" as="offset" />
          </mxGeometry>
        </mxCell>
        <mxCell id="tMXFzxCmxvHccaeZ4-Bl-39" value="&lt;div&gt;Courses&lt;/div&gt;" style="rounded=1;arcSize=10;whiteSpace=wrap;html=1;align=center;fillColor=#f5f5f5;fontColor=#333333;strokeColor=#666666;" vertex="1" parent="1">
          <mxGeometry x="360" y="720" width="100" height="40" as="geometry" />
        </mxCell>
        <mxCell id="tMXFzxCmxvHccaeZ4-Bl-40" value="&lt;div&gt;Course Name&lt;/div&gt;" style="ellipse;whiteSpace=wrap;html=1;align=center;fillColor=#ffe6cc;strokeColor=#d79b00;" vertex="1" parent="1">
          <mxGeometry x="460" y="810" width="100" height="40" as="geometry" />
        </mxCell>
        <mxCell id="tMXFzxCmxvHccaeZ4-Bl-41" value="&lt;div&gt;Credit Hours&lt;/div&gt;" style="ellipse;whiteSpace=wrap;html=1;align=center;fillColor=#ffe6cc;strokeColor=#d79b00;" vertex="1" parent="1">
          <mxGeometry x="230" y="790" width="100" height="40" as="geometry" />
        </mxCell>
        <mxCell id="tMXFzxCmxvHccaeZ4-Bl-43" value="Course ID" style="ellipse;whiteSpace=wrap;html=1;align=center;fontStyle=4;fillColor=#ffe6cc;strokeColor=#d79b00;" vertex="1" parent="1">
          <mxGeometry x="340" y="810" width="100" height="40" as="geometry" />
        </mxCell>
        <mxCell id="tMXFzxCmxvHccaeZ4-Bl-44" value="" style="endArrow=none;html=1;rounded=0;exitX=0.62;exitY=0.075;exitDx=0;exitDy=0;exitPerimeter=0;" edge="1" parent="1" source="tMXFzxCmxvHccaeZ4-Bl-41" target="tMXFzxCmxvHccaeZ4-Bl-39">
          <mxGeometry relative="1" as="geometry">
            <mxPoint x="580" y="590" as="sourcePoint" />
            <mxPoint x="740" y="590" as="targetPoint" />
          </mxGeometry>
        </mxCell>
        <mxCell id="tMXFzxCmxvHccaeZ4-Bl-45" value="" style="endArrow=none;html=1;rounded=0;exitX=0.58;exitY=-0.1;exitDx=0;exitDy=0;exitPerimeter=0;" edge="1" parent="1" source="tMXFzxCmxvHccaeZ4-Bl-43" target="tMXFzxCmxvHccaeZ4-Bl-39">
          <mxGeometry relative="1" as="geometry">
            <mxPoint x="580" y="590" as="sourcePoint" />
            <mxPoint x="740" y="590" as="targetPoint" />
          </mxGeometry>
        </mxCell>
        <mxCell id="tMXFzxCmxvHccaeZ4-Bl-48" value="" style="endArrow=none;html=1;rounded=0;" edge="1" parent="1" source="tMXFzxCmxvHccaeZ4-Bl-39" target="tMXFzxCmxvHccaeZ4-Bl-40">
          <mxGeometry relative="1" as="geometry">
            <mxPoint x="580" y="590" as="sourcePoint" />
            <mxPoint x="740" y="590" as="targetPoint" />
          </mxGeometry>
        </mxCell>
        <mxCell id="tMXFzxCmxvHccaeZ4-Bl-49" value="" style="endArrow=none;html=1;rounded=0;exitX=0;exitY=0.5;exitDx=0;exitDy=0;entryX=1;entryY=0.5;entryDx=0;entryDy=0;" edge="1" parent="1" source="tMXFzxCmxvHccaeZ4-Bl-36" target="tMXFzxCmxvHccaeZ4-Bl-39">
          <mxGeometry relative="1" as="geometry">
            <mxPoint x="580" y="590" as="sourcePoint" />
            <mxPoint x="740" y="590" as="targetPoint" />
          </mxGeometry>
        </mxCell>
        <mxCell id="tMXFzxCmxvHccaeZ4-Bl-50" value="M" style="resizable=0;html=1;whiteSpace=wrap;align=left;verticalAlign=bottom;" connectable="0" vertex="1" parent="tMXFzxCmxvHccaeZ4-Bl-49">
          <mxGeometry x="-1" relative="1" as="geometry">
            <mxPoint x="-30" y="-10" as="offset" />
          </mxGeometry>
        </mxCell>
        <mxCell id="tMXFzxCmxvHccaeZ4-Bl-52" value="&lt;div&gt;Sign In&lt;/div&gt;" style="shape=rhombus;perimeter=rhombusPerimeter;whiteSpace=wrap;html=1;align=center;fillColor=#f5f5f5;fontColor=#333333;strokeColor=#666666;" vertex="1" parent="1">
          <mxGeometry x="370" y="470" width="100" height="60" as="geometry" />
        </mxCell>
        <mxCell id="tMXFzxCmxvHccaeZ4-Bl-53" value="" style="endArrow=none;html=1;rounded=0;exitX=1;exitY=0.5;exitDx=0;exitDy=0;entryX=0;entryY=0.5;entryDx=0;entryDy=0;" edge="1" parent="1" source="tMXFzxCmxvHccaeZ4-Bl-52" target="tMXFzxCmxvHccaeZ4-Bl-1">
          <mxGeometry relative="1" as="geometry">
            <mxPoint x="580" y="590" as="sourcePoint" />
            <mxPoint x="740" y="590" as="targetPoint" />
          </mxGeometry>
        </mxCell>
        <mxCell id="tMXFzxCmxvHccaeZ4-Bl-54" value="M" style="resizable=0;html=1;whiteSpace=wrap;align=left;verticalAlign=bottom;" connectable="0" vertex="1" parent="tMXFzxCmxvHccaeZ4-Bl-53">
          <mxGeometry x="-1" relative="1" as="geometry">
            <mxPoint x="30" y="20" as="offset" />
          </mxGeometry>
        </mxCell>
        <mxCell id="tMXFzxCmxvHccaeZ4-Bl-56" value="" style="endArrow=none;html=1;rounded=0;exitX=0.5;exitY=0;exitDx=0;exitDy=0;" edge="1" parent="1" source="tMXFzxCmxvHccaeZ4-Bl-39" target="tMXFzxCmxvHccaeZ4-Bl-52">
          <mxGeometry relative="1" as="geometry">
            <mxPoint x="580" y="590" as="sourcePoint" />
            <mxPoint x="740" y="590" as="targetPoint" />
          </mxGeometry>
        </mxCell>
        <mxCell id="tMXFzxCmxvHccaeZ4-Bl-58" value="N" style="resizable=0;html=1;whiteSpace=wrap;align=right;verticalAlign=bottom;" connectable="0" vertex="1" parent="tMXFzxCmxvHccaeZ4-Bl-56">
          <mxGeometry x="1" relative="1" as="geometry">
            <mxPoint x="-12" y="21" as="offset" />
          </mxGeometry>
        </mxCell>
        <mxCell id="tMXFzxCmxvHccaeZ4-Bl-61" value="&lt;div&gt;Course Year&lt;/div&gt;" style="ellipse;whiteSpace=wrap;html=1;align=center;fillColor=#ffe6cc;strokeColor=#d79b00;" vertex="1" parent="1">
          <mxGeometry x="310" y="360" width="120" height="40" as="geometry" />
        </mxCell>
        <mxCell id="tMXFzxCmxvHccaeZ4-Bl-62" value="&lt;div&gt;Course Semester&lt;/div&gt;" style="ellipse;whiteSpace=wrap;html=1;align=center;fillColor=#ffe6cc;strokeColor=#d79b00;" vertex="1" parent="1">
          <mxGeometry x="230" y="420" width="120" height="40" as="geometry" />
        </mxCell>
        <mxCell id="tMXFzxCmxvHccaeZ4-Bl-63" value="&lt;div&gt;Course Grade&lt;/div&gt;" style="ellipse;whiteSpace=wrap;html=1;align=center;fillColor=#ffe6cc;strokeColor=#d79b00;" vertex="1" parent="1">
          <mxGeometry x="410" y="410" width="120" height="40" as="geometry" />
        </mxCell>
        <mxCell id="tMXFzxCmxvHccaeZ4-Bl-64" value="" style="endArrow=none;html=1;rounded=0;" edge="1" parent="1" source="tMXFzxCmxvHccaeZ4-Bl-62" target="tMXFzxCmxvHccaeZ4-Bl-52">
          <mxGeometry relative="1" as="geometry">
            <mxPoint x="580" y="590" as="sourcePoint" />
            <mxPoint x="740" y="590" as="targetPoint" />
          </mxGeometry>
        </mxCell>
        <mxCell id="tMXFzxCmxvHccaeZ4-Bl-65" value="" style="endArrow=none;html=1;rounded=0;" edge="1" parent="1" source="tMXFzxCmxvHccaeZ4-Bl-61" target="tMXFzxCmxvHccaeZ4-Bl-52">
          <mxGeometry relative="1" as="geometry">
            <mxPoint x="580" y="590" as="sourcePoint" />
            <mxPoint x="740" y="590" as="targetPoint" />
          </mxGeometry>
        </mxCell>
        <mxCell id="tMXFzxCmxvHccaeZ4-Bl-66" value="" style="endArrow=none;html=1;rounded=0;" edge="1" parent="1" source="tMXFzxCmxvHccaeZ4-Bl-52" target="tMXFzxCmxvHccaeZ4-Bl-63">
          <mxGeometry relative="1" as="geometry">
            <mxPoint x="580" y="590" as="sourcePoint" />
            <mxPoint x="740" y="590" as="targetPoint" />
          </mxGeometry>
        </mxCell>
        <mxCell id="tMXFzxCmxvHccaeZ4-Bl-67" style="edgeStyle=orthogonalEdgeStyle;rounded=0;orthogonalLoop=1;jettySize=auto;html=1;exitX=0.5;exitY=1;exitDx=0;exitDy=0;" edge="1" parent="1" source="tMXFzxCmxvHccaeZ4-Bl-32" target="tMXFzxCmxvHccaeZ4-Bl-32">
          <mxGeometry relative="1" as="geometry" />
        </mxCell>
      </root>
    </mxGraphModel>
  </diagram>
</mxfile>
